<svg xmlns="http://www.w3.org/2000/svg" xmlns:xlink="http://www.w3.org/1999/xlink" width="1920" height="296" viewBox="0 0 1920 296">
  <defs>
    <linearGradient id="linear-gradient" x1="0.5" x2="0.5" y2="1.149" gradientUnits="objectBoundingBox">
      <stop offset="0" stop-color="#005b98"/>
      <stop offset="1" stop-color="#045083"/>
    </linearGradient>
    <linearGradient id="linear-gradient-2" x2="0.492" y2="2.071" xlink:href="#linear-gradient"/>
    <clipPath id="clip-path">
      <rect id="Rectangle_1544" data-name="Rectangle 1544" width="1920" height="296" transform="translate(0 6115)" fill="url(#linear-gradient)"/>
    </clipPath>
    <filter id="Path_31420" x="1590.5" y="-219.5" width="379" height="379" filterUnits="userSpaceOnUse">
      <feOffset dy="3" input="SourceAlpha"/>
      <feGaussianBlur stdDeviation="32.5" result="blur"/>
      <feFlood/>
      <feComposite operator="in" in2="blur"/>
      <feComposite in="SourceGraphic"/>
    </filter>
    <filter id="Rectangle_1542" x="-221.675" y="-113.675" width="443.349" height="443.349" filterUnits="userSpaceOnUse">
      <feOffset dy="3" input="SourceAlpha"/>
      <feGaussianBlur stdDeviation="32.5" result="blur-2"/>
      <feFlood/>
      <feComposite operator="in" in2="blur-2"/>
      <feComposite in="SourceGraphic"/>
    </filter>
    <filter id="Rectangle_1543" x="1650.326" y="113" width="443.349" height="443.349" filterUnits="userSpaceOnUse">
      <feOffset dy="3" input="SourceAlpha"/>
      <feGaussianBlur stdDeviation="32.5" result="blur-3"/>
      <feFlood/>
      <feComposite operator="in" in2="blur-3"/>
      <feComposite in="SourceGraphic"/>
    </filter>
  </defs>
  <g id="Group_11858" data-name="Group 11858" transform="translate(0 -6062)">
    <rect id="Rectangle_78" data-name="Rectangle 78" width="1920" height="296" transform="translate(0 6062)" fill="url(#linear-gradient-2)"/>
    <g id="Mask_Group_110" data-name="Mask Group 110" transform="translate(0 -53)" opacity="0.46" clip-path="url(#clip-path)">
      <g transform="matrix(1, 0, 0, 1, 0, 6115)" filter="url(#Path_31420)">
        <path id="Path_31420-2" data-name="Path 31420" d="M92,0A92,92,0,1,1,0,92,92,92,0,0,1,92,0Z" transform="translate(1688 -125)" fill="#0fdcb3" opacity="0.1"/>
      </g>
      <g transform="matrix(1, 0, 0, 1, 0, 6115)" filter="url(#Rectangle_1542)">
        <rect id="Rectangle_1542-2" data-name="Rectangle 1542" width="178.318" height="178.318" rx="27" transform="matrix(0.82, 0.57, -0.57, 0.82, -21.9, -19.17)" fill="#0fddf5" opacity="0.1"/>
      </g>
      <g transform="matrix(1, 0, 0, 1, 0, 6115)" filter="url(#Rectangle_1543)">
        <rect id="Rectangle_1543-2" data-name="Rectangle 1543" width="178.318" height="178.318" rx="27" transform="matrix(0.82, 0.57, -0.57, 0.82, 1850.1, 207.5)" fill="#0fddf5" opacity="0.1"/>
      </g>
    </g>
  </g>
</svg>
