<svg xmlns="http://www.w3.org/2000/svg" xmlns:xlink="http://www.w3.org/1999/xlink" width="73" height="73" viewBox="0 0 73 73">
  <defs>
    <clipPath id="clip-path">
      <rect id="Rectangle_3963" data-name="Rectangle 3963" width="73" height="73" transform="translate(168 8688)" fill="#fff" stroke="#707070" stroke-width="1" opacity="0.2"/>
    </clipPath>
  </defs>
  <g id="Mask_Group_189" data-name="Mask Group 189" transform="translate(-168 -8688)" clip-path="url(#clip-path)">
    <circle id="Ellipse_977" data-name="Ellipse 977" cx="18" cy="18" r="18" transform="translate(169 8725)" fill="#f2aa18" opacity="0.1"/>
    <circle id="Ellipse_978" data-name="Ellipse 978" cx="18" cy="18" r="18" transform="translate(169 8725)" fill="#f2aa18" opacity="0.1"/>
    <g id="efficent_1649602343" transform="translate(170.413 8691.863)">
      <path id="Path_32018" data-name="Path 32018" d="M35.023,67.116h-2.24a5.545,5.545,0,0,1-5.809-5.57,2.358,2.358,0,0,0-1.608-2.406,6.384,6.384,0,0,0-2.583-.716,4.119,4.119,0,0,0-2.873,1.307,3.971,3.971,0,0,1-2.769,1.037A5.831,5.831,0,0,1,13.3,59.223c-1.1-1-2.137-2.054-3.091-3.06a5.466,5.466,0,0,1,.073-8.018,1.813,1.813,0,0,0,.394-2.624.366.366,0,0,1-.073-.145C10.14,43.135,8.916,42.129,6.5,42,4.166,41.89,2.184,39.6,2.091,36.891c-.041-1.141-.031-2.3-.021-3.423v-.685a5.518,5.518,0,0,1,5.684-5.809,2.253,2.253,0,0,0,2.261-1.6c1-1.95,1.245-3.547-.581-5.487-1.618-1.732-1.162-4.522.218-6.234a29.45,29.45,0,0,1,4.024-4.024,5.069,5.069,0,0,1,3.413-1.12,5.409,5.409,0,0,1,4.118,1.919,1.634,1.634,0,0,0,1.234.622,2.484,2.484,0,0,0,.851-.176c2.043-.705,3.89-1.6,3.973-4.782.062-2.272,2.7-3.931,5.01-4.014q.934-.031,1.867-.031c.529,0,2.24.01,2.24.01a5.521,5.521,0,0,1,5.809,5.674A2.271,2.271,0,0,0,43.788,10a5.633,5.633,0,0,0,2.562.757,4.3,4.3,0,0,0,2.915-1.317A4.033,4.033,0,0,1,52.045,8.4a5.831,5.831,0,0,1,3.838,1.545c1.016.923,1.971,1.888,3.091,3.06a5.478,5.478,0,0,1-.073,8.028,1.824,1.824,0,0,0-.4,2.624c.622,2.406,1.9,3.454,4.315,3.547,2.448.093,4.19,2.7,4.273,5.082.042,1.162.031,2.355.021,3.506v.6A5.518,5.518,0,0,1,61.421,42.2a2.24,2.24,0,0,0-2.261,1.608c-.965,1.95-1.214,3.547.57,5.466,1.794,1.94,1.079,4.854-.5,6.618-.975,1.079-2.043,2.126-3.06,3.091a5.747,5.747,0,0,1-3.983,1.722h0a5.72,5.72,0,0,1-4.035-1.794A2.248,2.248,0,0,0,46.63,58.1a1.822,1.822,0,0,0-1.1.415c-2.406.612-3.454,1.9-3.547,4.315-.093,2.448-2.707,4.19-5.082,4.273-.622.021-1.245.031-1.857.031Zm-12.2-12.208a24.638,24.638,0,0,0,5.684,2.365,1.472,1.472,0,0,1,1.245,1.639v.446c-.01.685-.021,1.359,0,2.043A2.739,2.739,0,0,0,32.7,64.284c.633.01,1.265.021,1.9.021s1.245,0,1.857-.021a2.718,2.718,0,0,0,2.9-2.78c.041-.685.031-1.38.021-2.054v-.56A1.414,1.414,0,0,1,40.531,57.3a25.261,25.261,0,0,0,5.809-2.4,1.8,1.8,0,0,1,.882-.27,1.646,1.646,0,0,1,1.172.591l.373.384c.477.488.954,1,1.473,1.463a2.849,2.849,0,0,0,1.909.809,2.809,2.809,0,0,0,1.909-.83c1.016-.944,2-1.929,2.946-2.946a2.629,2.629,0,0,0,.021-3.817c-.477-.529-1-1.027-1.494-1.5l-.353-.342a1.508,1.508,0,0,1-.322-2.054,24.809,24.809,0,0,0,2.4-5.809,1.415,1.415,0,0,1,1.566-1.151s1.193.01,1.483.01c.384,0,.768,0,1.151-.031a2.732,2.732,0,0,0,2.78-2.915c.021-1.2.021-2.438,0-3.755A2.739,2.739,0,0,0,61.349,29.8c-.353-.021-.705-.021-1.068-.021H58.745a1.365,1.365,0,0,1-1.483-1.11,26.242,26.242,0,0,0-2.448-5.923,1.413,1.413,0,0,1,.27-1.857c.218-.218.436-.436.653-.643.436-.425.861-.851,1.265-1.3a2.63,2.63,0,0,0,.021-3.817c-.892-.965-1.857-1.929-2.946-2.946a2.828,2.828,0,0,0-1.929-.851,2.976,2.976,0,0,0-1.992.882c-.425.394-.819.8-1.224,1.214-.207.207-.4.415-.612.622a1.57,1.57,0,0,1-1.1.529,1.708,1.708,0,0,1-.861-.259,24.978,24.978,0,0,0-5.809-2.406,1.428,1.428,0,0,1-1.182-1.566V9.726c0-.612.021-1.234,0-1.846a2.763,2.763,0,0,0-3.018-2.956c-.612,0-1.224-.01-1.836-.01s-1.193,0-1.784.01a2.734,2.734,0,0,0-2.977,2.852c-.031.612-.021,1.234-.021,1.846v.757a1.36,1.36,0,0,1-1.089,1.5,26.024,26.024,0,0,0-5.923,2.448,1.668,1.668,0,0,1-.83.239,1.582,1.582,0,0,1-1.131-.55l-.539-.55c-.446-.456-.913-.934-1.4-1.38a2.8,2.8,0,0,0-1.857-.768,2.712,2.712,0,0,0-1.857.788c-1.068.985-2.085,2.012-3.039,3.039a2.622,2.622,0,0,0,.073,3.817c.456.488.934.954,1.411,1.421l.425.415a1.62,1.62,0,0,1,.529,1.286v.073a1.961,1.961,0,0,1-.156.477A27.188,27.188,0,0,0,11.8,28.8a1.292,1.292,0,0,1-1.348.965H8.885c-.436,0-.871,0-1.3.031a2.7,2.7,0,0,0-2.707,2.832c-.031,1.286-.021,2.572,0,3.755A2.76,2.76,0,0,0,7.827,39.4c.353.01.705.021,1.058.021h1.421a1.42,1.42,0,0,1,1.566,1.172A25.353,25.353,0,0,0,14.279,46.4a1.476,1.476,0,0,1-.27,1.96c-.207.207-.4.4-.612.6-.415.4-.83.809-1.214,1.234a2.638,2.638,0,0,0-.031,3.91c.861.923,1.794,1.857,2.852,2.852a2.871,2.871,0,0,0,1.981.9,3,3,0,0,0,2.033-.934c.456-.425.9-.882,1.338-1.328l.415-.415A2.67,2.67,0,0,1,22.826,54.908Z" transform="translate(0 0)" fill="#005b98" stroke="#005b98" stroke-width="1"/>
      <path id="Path_32019" data-name="Path 32019" d="M29.681,42.091A2.373,2.373,0,0,1,28.1,41.23c-.851-.84-1.7-1.691-2.552-2.541-.612-.622-1.234-1.234-1.857-1.857a1.857,1.857,0,0,1-.716-1.473,1.67,1.67,0,0,1,1.027-1.577,1.854,1.854,0,0,1,.778-.187,1.632,1.632,0,0,1,1.12.488c.83.768,1.711,1.608,2.51,2.5a1.751,1.751,0,0,0,1.245.747,1.863,1.863,0,0,0,1.245-.674c2.344-2.406,4.771-4.823,7.115-7.167l3.361-3.361a1.8,1.8,0,0,1,1.815-.747,1.766,1.766,0,0,1,.882,3.029l-3.672,3.672-3.35,3.35q-2.894,2.894-5.8,5.788a2.353,2.353,0,0,1-1.566.861Z" transform="translate(0.779 0.868)" fill="#005b98"/>
    </g>
  </g>
</svg>
