<svg xmlns="http://www.w3.org/2000/svg" xmlns:xlink="http://www.w3.org/1999/xlink" width="85" height="71" viewBox="0 0 85 71">
  <defs>
    <clipPath id="clip-path">
      <rect id="Rectangle_3967" data-name="Rectangle 3967" width="85" height="71" transform="translate(1302 8691)" fill="#fff" stroke="#707070" stroke-width="1" opacity="0.2"/>
    </clipPath>
  </defs>
  <g id="Mask_Group_192" data-name="Mask Group 192" transform="translate(-1302 -8691)" clip-path="url(#clip-path)">
    <circle id="Ellipse_967" data-name="Ellipse 967" cx="18" cy="18" r="18" transform="translate(1303 8725)" fill="#f2aa18" opacity="0.1"/>
    <path id="extensible" d="M56.382,28.894a15.672,15.672,0,0,0-3.983-.222c-.336.009-.681.028-1.026.028.028-2.808.028-5.653.019-8.405V18.886c-.019-4.55-2.854-7.386-7.406-7.4H42.895c-2.891-.009-5.867-.019-8.814.009.037-1.094.019-2.2,0-3.188V8.2A8.373,8.373,0,0,0,17.5,6.727a16.576,16.576,0,0,0-.2,3.892c0,.287.019.584.019.871-1.231-.028-2.453-.019-3.647-.019H10.5c-1.185,0-2.406-.009-3.61.009A6.852,6.852,0,0,0,.047,18.218C.009,20.081.009,21.972.019,23.8v.111c0,1.492,0,3.03-.009,4.541a2.043,2.043,0,0,0,.513,1.483,2.122,2.122,0,0,0,1.576.51h.438a34.994,34.994,0,0,1,3.693.074,6.529,6.529,0,0,1-.392,13.02c-1.25.046-2.528.046-3.824.009a2.052,2.052,0,0,0-1.483.482A2,2,0,0,0,0,45.519c.009,1.418,0,2.864,0,4.254,0,1.992-.009,4.05.028,6.1a6.855,6.855,0,0,0,6.7,6.645c2.005.037,4.039.028,6.007.028h4.412a2.009,2.009,0,0,0,1.492-.519,1.988,1.988,0,0,0,.485-1.483c-.037-1.279-.037-2.558,0-3.8a6.457,6.457,0,0,1,6.2-6.218,6.533,6.533,0,0,1,6.9,5.829,35.318,35.318,0,0,1,.065,4.087,1.826,1.826,0,0,0,2.033,2.1h.065c2.136-.028,4.309-.028,6.417-.019h3.153c4.486,0,7.387-2.873,7.406-7.293v-.565c.009-3.049.028-6.2-.009-9.332,1.129.046,2.313.046,3.526-.019a8.419,8.419,0,0,0,8.021-7.59,8.308,8.308,0,0,0-6.548-8.85Zm-21.8,27.255a8.935,8.935,0,0,0-17.805.519c-.047,1.14-.047,2.326-.019,3.54h-3.9v.463h0l-.14-.463c-1.959,0-3.973,0-5.96-.028a4.481,4.481,0,0,1-4.384-4.346C2.341,53.9,2.35,51.914,2.35,50V45.89c1.2.028,2.4.019,3.563-.019A8.864,8.864,0,0,0,6.426,28.19a37.41,37.41,0,0,0-3.936-.083H2.35c.009-1.4.009-2.817,0-4.2,0-1.844,0-3.762.028-5.634a4.511,4.511,0,0,1,4.542-4.43c1.175-.019,2.369-.019,3.563-.009h3.283c1.231-.009,2.509-.019,3.749.019a2.188,2.188,0,0,0,1.595-.5,2.113,2.113,0,0,0,.55-1.575c0-.426-.009-.853-.028-1.26a14.314,14.314,0,0,1,.149-3.308A6.016,6.016,0,0,1,31.7,8.265v.12c.028,1.1.047,2.233,0,3.327a2.054,2.054,0,0,0,.494,1.6,2.167,2.167,0,0,0,1.614.547c2.994-.037,6.035-.028,8.982-.019h1.175c3.255.009,5.046,1.807,5.055,5.069v1.27c.009,2.678.019,5.718-.019,8.7a2.162,2.162,0,0,0,.532,1.622,2.194,2.194,0,0,0,1.614.547c.438,0,.886-.019,1.343-.028a13.187,13.187,0,0,1,3.339.158,5.992,5.992,0,0,1,4.729,6.376,6.078,6.078,0,0,1-5.792,5.458c-1.231.056-2.425.056-3.554,0a2.16,2.16,0,0,0-1.66.5,2.124,2.124,0,0,0-.56,1.65c.037,3.086.028,6.237.019,9.286v.806c-.019,3.151-1.856,4.958-5.055,4.958H40.815c-2.024,0-4.1,0-6.165.019a35.138,35.138,0,0,0-.084-4.068ZM12.871,62.08Zm21.48.009Z" transform="translate(1319.303 8698.456)" fill="#005b98" stroke="#005b98" stroke-width="1.3"/>
  </g>
</svg>
