<svg xmlns="http://www.w3.org/2000/svg" width="24.297" height="24.297" viewBox="0 0 24.297 24.297">
  <path id="Icon_ionic-ios-checkmark-circle" data-name="Icon ionic-ios-checkmark-circle" d="M15.523,3.375A12.148,12.148,0,1,0,27.672,15.523,12.146,12.146,0,0,0,15.523,3.375Zm6.22,8.79-7.809,7.844h-.006a1.055,1.055,0,0,1-.678.321A1.022,1.022,0,0,1,12.568,20L9.3,16.726a.233.233,0,0,1,0-.333l1.04-1.04a.226.226,0,0,1,.327,0l2.593,2.593,7.125-7.178a.231.231,0,0,1,.164-.07h0a.212.212,0,0,1,.164.07l1.022,1.057A.23.23,0,0,1,21.743,12.165Z" transform="translate(-3.375 -3.375)" fill="#0fddf5"/>
</svg>
