<svg xmlns="http://www.w3.org/2000/svg" xmlns:xlink="http://www.w3.org/1999/xlink" width="44" height="44" viewBox="0 0 44 44">
  <defs>
    <clipPath id="clip-path">
      <rect id="Rectangle_1496" data-name="Rectangle 1496" width="44" height="44" transform="translate(140 4931)" fill="#fff" stroke="#707070" stroke-width="1" opacity="0.2"/>
    </clipPath>
  </defs>
  <g id="Mask_Group_99" data-name="Mask Group 99" transform="translate(-140 -4931)" clip-path="url(#clip-path)">
    <path id="Path_31337" data-name="Path 31337" d="M121.053,275.247l3.108-.366a7.4,7.4,0,0,1-3.108.366" transform="translate(37.561 4703.575)" fill="#d9e9c3"/>
    <g id="Group_1269" data-name="Group 1269" transform="translate(-4647.608 207.936)">
      <path id="Path_31389" data-name="Path 31389" d="M123.64,17.393c.534-.659,1.034-1.285,1.544-1.9A85,85,0,0,1,139.605,1.446a5.636,5.636,0,0,1,4.317-1.4c.514.071,1.056-.045,1.566.043a1.1,1.1,0,0,1,.759.536,1.036,1.036,0,0,1-.236.9c-7.105,6.657-12.537,14.62-17.768,22.737-1.243,1.928-2.4,3.913-3.59,5.872-.512.841-1.121.844-1.667.048q-4.779-6.972-9.58-13.928c-.731-1.059-.745-1.157.184-2.074q.752-.743,1.506-1.484c.622-.608.884-.626,1.622-.111q3.146,2.194,6.29,4.389c.194.135.4.261.632.416" transform="translate(4681.634 4727.064)" fill="#268034"/>
      <path id="Path_31390" data-name="Path 31390" d="M95.292,76.851q-6.707,0-13.414,0c-1.063,0-1.269-.205-1.269-1.279q0-13.444,0-26.889c0-1.109.191-1.3,1.313-1.3q8.52,0,17.039,0c.9,0,1.3.244,1.315.8.015.58-.383.829-1.333.829-5.317,0-10.635.012-15.952-.015-.635,0-.764.2-.763.787q.026,12.326.012,24.653c0,.782,0,.783.8.783,8.218,0,16.435-.008,24.653.016.644,0,.758-.2.756-.787-.02-5.257-.012-10.514-.012-15.771,0-.2,0-.4,0-.6a.809.809,0,0,1,.779-.9c.46-.049.812.345.849.9.009.14,0,.282,0,.423q0,8.52,0,17.039c0,1.083-.225,1.31-1.3,1.31q-6.737,0-13.474,0" transform="translate(4710 4685.405)" fill="#268034"/>
    </g>
  </g>
</svg>
