<svg xmlns="http://www.w3.org/2000/svg" width="153.808" height="138.152" viewBox="0 0 153.808 138.152">
  <g id="Group_11816" data-name="Group 11816" transform="translate(-163 -69)">
    <path id="Path_5" data-name="Path 5" d="M4119.022,3209.654c-38.842-11.488-58.536,23.524-66.742,80.418s76.589,74.947,134.03,31.183S4157.863,3221.143,4119.022,3209.654Z" transform="translate(-3888.727 -3138.477)" fill="#f7f9fe"/>
    <path id="Icon_metro-airplane" data-name="Icon metro-airplane" d="M12.973,27.932,20.4,20.5,2.571,7.129l5.2-5.2,22.288,8.917,7.017-7.018C39.1,1.8,41.926,1.32,43.356,2.75s.945,4.255-1.077,6.278l-7.017,7.017L44.18,38.336l-5.2,5.2L25.6,25.7l-7.429,7.429v10.4h-5.2l-2.6-7.8-7.8-2.6v-5.2h10.4Z" transform="translate(217.43 116.072)" fill="#005b98"/>
  </g>
</svg>
