<svg xmlns="http://www.w3.org/2000/svg" width="102" height="89.25" viewBox="0 0 102 89.25">
  <path id="Icon_awesome-quote-left" data-name="Icon awesome-quote-left" d="M92.438,46.875H76.5V34.125a12.762,12.762,0,0,1,12.75-12.75h1.594a4.77,4.77,0,0,0,4.781-4.781V7.031A4.77,4.77,0,0,0,90.844,2.25H89.25A31.866,31.866,0,0,0,57.375,34.125V81.938A9.565,9.565,0,0,0,66.938,91.5h25.5A9.565,9.565,0,0,0,102,81.938v-25.5A9.565,9.565,0,0,0,92.438,46.875Zm-57.375,0H19.125V34.125a12.762,12.762,0,0,1,12.75-12.75h1.594a4.77,4.77,0,0,0,4.781-4.781V7.031A4.77,4.77,0,0,0,33.469,2.25H31.875A31.866,31.866,0,0,0,0,34.125V81.938A9.565,9.565,0,0,0,9.563,91.5h25.5a9.565,9.565,0,0,0,9.563-9.562v-25.5A9.565,9.565,0,0,0,35.063,46.875Z" transform="translate(0 -2.25)" fill="#0586b7" opacity="0.1"/>
</svg>
