<svg xmlns="http://www.w3.org/2000/svg" xmlns:xlink="http://www.w3.org/1999/xlink" width="70" height="70" viewBox="0 0 70 70">
  <defs>
    <clipPath id="clip-path">
      <rect id="Rectangle_3964" data-name="Rectangle 3964" width="70" height="70" transform="translate(735 8692)" fill="#fff" stroke="#707070" stroke-width="1" opacity="0.2"/>
    </clipPath>
  </defs>
  <g id="Mask_Group_190" data-name="Mask Group 190" transform="translate(-735 -8692)" clip-path="url(#clip-path)">
    <circle id="Ellipse_970" data-name="Ellipse 970" cx="18" cy="18" r="18" transform="translate(736 8725)" fill="#f2aa18" opacity="0.1"/>
    <g id="relible" transform="translate(748.763 8697.01)">
      <path id="Path_32020" data-name="Path 32020" d="M26.675,64.061a7.708,7.708,0,0,1-2.654-.947c-.582-.263-1.266-.582-2.11-.947C9.942,56.97,2.842,47.656.816,34.487A110.827,110.827,0,0,1,.038,16.451c.009-1,.028-2.007.028-3.011.009-1.782.019-3.067.4-3.461s1.585-.431,3.423-.506a31.918,31.918,0,0,0,21.3-8.6,2.543,2.543,0,0,1,1.5-.882A2.334,2.334,0,0,1,28.12.825C34,6.387,41.129,9.219,49.917,9.5h.7c.31,0,.619,0,.929.019a1.59,1.59,0,0,1,1.726,1.791c.019,2.045.009,4.08.009,6.125V20c.159,5.487.094,12.653-1.848,19.678-2.889,10.449-9.623,18.018-20.016,22.5-.854.366-1.548.685-2.129.947a13.319,13.319,0,0,1-2.626.929h0Zm.009-59.944a1.732,1.732,0,0,0-1.135.535l-.094.075a32.813,32.813,0,0,1-8.845,5.29A38.3,38.3,0,0,1,4.784,12.53H4.643a1.4,1.4,0,0,0-1.519,1.51l-.038,2.3a111.551,111.551,0,0,0,.628,17.2C5.365,45.386,11.64,53.987,22.379,59.108a9.929,9.929,0,0,0,4.324,1.1A9.719,9.719,0,0,0,31.008,59.1c8.76-4.305,14.313-10.355,17-18.487,2.12-6.434,2.317-12.953,2.223-19.04V19.546c0-1.67-.019-3.4.028-5.093.047-1.623-.957-1.885-1.829-1.942-8.263-.5-15.045-3.1-20.71-7.944a1.559,1.559,0,0,0-1.032-.431Z" transform="translate(0)" fill="#005b98" stroke="#005b98" stroke-width="1"/>
      <path id="Path_32021" data-name="Path 32021" d="M24.569,41.5c-.422,0-.938-.319-1.632-1.013l-.816-.807q-2.35-2.335-4.69-4.69a1.656,1.656,0,0,1-.31-2.439,1.39,1.39,0,0,1,1-.478,2.252,2.252,0,0,1,1.5.788c1.013,1,2.007,2.017,3.039,3.058L24.55,37.83l11-11.068a8.544,8.544,0,0,1,.76-.7,1.588,1.588,0,0,1,.929-.319,1.524,1.524,0,0,1,1.182,2.448,6.864,6.864,0,0,1-.572.638Q31.983,34.707,26.172,40.5c-.685.685-1.2,1-1.613,1Z" transform="translate(-1.036 -1.598)" fill="#005b98" stroke="#005b98" stroke-width="0.8"/>
    </g>
  </g>
</svg>
