<svg xmlns="http://www.w3.org/2000/svg" xmlns:xlink="http://www.w3.org/1999/xlink" width="64" height="64" viewBox="0 0 64 64">
  <defs>
    <clipPath id="clip-path">
      <rect id="Rectangle_3954" data-name="Rectangle 3954" width="64" height="64" transform="translate(169 8215)" fill="#fff" stroke="#707070" stroke-width="1" opacity="0.5"/>
    </clipPath>
  </defs>
  <g id="Mask_Group_180" data-name="Mask Group 180" transform="translate(-169 -8215)" clip-path="url(#clip-path)">
    <circle id="Ellipse_965" data-name="Ellipse 965" cx="18" cy="18" r="18" transform="translate(169 8242)" fill="#f2aa18" opacity="0.1"/>
    <g id="simple" transform="translate(174.612 8217.608)">
      <path id="Path_32004" data-name="Path 32004" d="M27.814,56.387C12.87,56.387.664,44.358.02,29-.617,13.77,11.617.771,27.29.028,27.722.007,28.154,0,28.578,0c14.866,0,27.065,12,27.78,27.327a27.122,27.122,0,0,1-7.189,19.657,28.792,28.792,0,0,1-20.138,9.375c-.41.021-.814.028-1.217.028h0Zm.333-51.979a23.9,23.9,0,1,0,.042,0h-.05Z" transform="translate(0 0)" fill="#005b98"/>
      <path id="Path_32005" data-name="Path 32005" d="M29.212,45.929a2.962,2.962,0,0,1-1.953-1.061c-1.054-1.047-2.109-2.1-3.156-3.149-.764-.764-1.528-1.535-2.293-2.3a2.315,2.315,0,0,1-.892-1.833,2.055,2.055,0,0,1,1.267-1.953,2.282,2.282,0,0,1,.962-.234,2.027,2.027,0,0,1,1.387.6c1.033.955,2.123,2,3.106,3.1a2.166,2.166,0,0,0,1.55.92,2.233,2.233,0,0,0,1.535-.842c2.9-2.986,5.9-5.979,8.8-8.873,1.387-1.387,2.774-2.767,4.161-4.161a2.566,2.566,0,0,1,1.818-.955,2.144,2.144,0,0,1,.417.042A2.07,2.07,0,0,1,47.6,26.711a2.1,2.1,0,0,1-.587,2.271q-2.271,2.282-4.543,4.55l-4.146,4.146q-3.587,3.587-7.175,7.168A2.934,2.934,0,0,1,29.2,45.908Z" transform="translate(-6.117 -7.366)" fill="#005b98"/>
    </g>
  </g>
</svg>
