<svg xmlns="http://www.w3.org/2000/svg" width="55" height="65.434" viewBox="0 0 55 65.434">
  <g id="Group_11693" data-name="Group 11693" transform="translate(-173 -2489.566)">
    <circle id="Ellipse_966" data-name="Ellipse 966" cx="18" cy="18" r="18" transform="translate(173 2519)" fill="#f2aa18" opacity="0.1"/>
    <path id="presistent" d="M43.968,9.461A6.167,6.167,0,0,0,35.13,3.786c-.8.33-.99.165-1.384-.5A6.115,6.115,0,0,0,24.34,1.494c-.642.5-.944.449-1.559-.028a6.013,6.013,0,0,0-7.921.055c-.568.431-.853.477-1.43.009A5.888,5.888,0,0,0,6.692.7,6.175,6.175,0,0,0,3.135,6.674c0,2.457-.018,4.923.009,7.38a1.989,1.989,0,0,1-.66,1.641A7.786,7.786,0,0,0,0,21.892,26.283,26.283,0,0,0,9.992,42.18a6.391,6.391,0,0,1,2.6,5.537c-.11,3.823-.037,7.646-.028,11.469,0,2.026.431,2.448,2.5,2.448H38.476c1.925,0,2.374-.458,2.374-2.42,0-3.355.037-6.7-.009-10.048a14.489,14.489,0,0,1,.633-4.465,54.812,54.812,0,0,0,2.209-11.524c.642-7.893.257-15.805.275-23.708ZM25.156,6.536a3.144,3.144,0,1,1,6.271.037c.028,1.669,0,3.346,0,5.015,0,1.623.028,3.245,0,4.859a3.144,3.144,0,1,1-6.271-.037q-.041-4.937,0-9.883Zm-9.434-.028a3.14,3.14,0,1,1,6.271-.064c.037,1.045,0,2.09,0,3.392-.128,1.027.568,2.732-.266,3.484-.706.633-2.374.2-3.621.211-2.393.018-2.393,0-2.393-2.31,0-1.568-.028-3.135,0-4.7ZM6.307,6.142A3.122,3.122,0,0,1,9.36,3.172a3.085,3.085,0,0,1,3.181,3c.083,2.191,0,4.382.037,6.573,0,.6-.165.816-.788.807-1.614-.028-3.236-.028-4.85.046-.642.028-.669-.257-.66-.724.009-1.146,0-2.292,0-3.447h.009c0-1.1-.055-2.191.009-3.282ZM36.615,58.508c-3.346-.055-6.7-.018-10.057-.018s-6.491-.028-9.736.018c-.889.018-1.155-.229-1.128-1.128.073-1.724.055-3.456,0-5.18-.028-.761.211-.963.963-.963q10.052.041,20.1,0c.752,0,.99.2.963.963-.055,1.724-.064,3.456,0,5.18.037.9-.238,1.137-1.128,1.118Zm2.5-17.024c-.468,2.026-1.467,3.933-1.4,6.078.018.706-.486.541-.871.541q-10.135,0-20.27.018c-.688,0-.917-.193-.88-.88.183-3.273-1.375-5.592-3.86-7.618A22.987,22.987,0,0,1,3.162,21.571a4.558,4.558,0,0,1,4.5-4.859c4.657-.083,9.314-.028,13.981-.028-.348,3.291-3.447,6.032-7.05,6.243-1.1.064-2.2.028-3.3.028-1.027,0-1.8.458-1.815,1.522-.028,1.164.779,1.669,1.87,1.614,3.768-.174,6.344,1.357,7.435,5.1a1.446,1.446,0,0,0,1.925,1.128,1.5,1.5,0,0,0,1.027-2,8.57,8.57,0,0,0-2.329-4.364c-.559-.568-.788-.871.11-1.32a8.909,8.909,0,0,0,3.475-3.1c.367-.55.642-.633,1.219-.156a6.03,6.03,0,0,0,6.876.9c.431-.2.633-.293.99.2,2.594,3.676,4.107,4.18,8.746,3a60.967,60.967,0,0,1-1.705,16Zm1.724-21.746a3.132,3.132,0,1,1-6.262-.018c-.046-1.724-.009-3.447-.009-5.171,0-1.669-.037-3.346.009-5.015a3.141,3.141,0,0,1,3.135-3.218,3.1,3.1,0,0,1,3.117,3.227c.046,3.4.046,6.793,0,10.194Z" transform="translate(183.943 2489.567)" fill="#005B98"/>
  </g>
</svg>
