<svg xmlns="http://www.w3.org/2000/svg" xmlns:xlink="http://www.w3.org/1999/xlink" width="69" height="69" viewBox="0 0 69 69">
  <defs>
    <clipPath id="clip-path">
      <rect id="Rectangle_3956" data-name="Rectangle 3956" width="69" height="69" transform="translate(1302 8210)" fill="#fff" stroke="#707070" stroke-width="1" opacity="0.4"/>
    </clipPath>
  </defs>
  <g id="Mask_Group_182" data-name="Mask Group 182" transform="translate(-1302 -8210)" clip-path="url(#clip-path)">
    <circle id="Ellipse_971" data-name="Ellipse 971" cx="18" cy="18" r="18" transform="translate(1303 8242)" fill="#f2aa18" opacity="0.1"/>
    <g id="transparency" transform="translate(1308.05 8216.003)">
      <path id="Path_32008" data-name="Path 32008" d="M2.6,18.04c.22,8.74,1.94,17.04,6.46,24.61A29.507,29.507,0,0,0,24.17,55.53a5.5,5.5,0,0,0,4.72-.03c.32-.16.72-.42,1.01-.35.6.15,1.52.41,1.61.8a1.983,1.983,0,0,1-.65,1.78,8.329,8.329,0,0,1-7.06.74C14.64,55.1,8.47,48.68,4.49,39.98A51.688,51.688,0,0,1,.08,20.95,68.222,68.222,0,0,1,1.26,5.06c.44-2.41.79-2.65,3.17-2.23A34.242,34.242,0,0,0,25.24.32,2.68,2.68,0,0,1,27.69.27,34.106,34.106,0,0,0,49.43,2.61,1.6,1.6,0,0,1,51.64,4a62.8,62.8,0,0,1,1.19,19.14c-.09,1-.2,1.99-.33,2.98a1.426,1.426,0,0,1-2.83-.29c.07-1.41.19-2.81.33-4.22a56.11,56.11,0,0,0-.8-14.69c-.16-1.02-.66-1.16-1.49-1.03A37.012,37.012,0,0,1,27.27,3.26a2.236,2.236,0,0,0-1.55.03A39,39,0,0,1,11.65,6.33a39.6,39.6,0,0,1-5.84-.45c-1.74-.2-1.88-.19-2.08,1.56-.41,3.52-.75,7.05-1.12,10.57Z" fill="#005b98" stroke="#005b98" stroke-width="1"/>
      <path id="Path_32009" data-name="Path 32009" d="M42.67,29A13.381,13.381,0,0,1,55.83,40.71a12.736,12.736,0,0,1-2.15,9.19,1.183,1.183,0,0,0,.19,1.83q3.675,3.57,7.26,7.25a2.674,2.674,0,0,1,.77,1.63,1.5,1.5,0,0,1-.94,1.13,2.554,2.554,0,0,1-1.79-.57c-2.37-2.27-4.7-4.58-6.96-6.96a1.764,1.764,0,0,0-2.71-.35c-7.96,5-18.79.33-20.23-8.92C27.84,35.75,34.05,28.97,42.67,29Zm-.29,23.91A10.206,10.206,0,0,0,52.95,42.56,10.3,10.3,0,0,0,42.52,31.89,10.28,10.28,0,0,0,31.95,42.41a10.213,10.213,0,0,0,10.43,10.5Z" fill="#005b98" stroke="#005b98" stroke-width="1"/>
    </g>
  </g>
</svg>
